# xmcd
#
# Track frame offsets:
#	150
#	5699
#	21147
#	31010
#	52021
#	70611
#	94859
#	112725
#	135542
#	151304
#	165709
#	185982
#	204118
#	226329
#
# Disc length: 3255 seconds
#
# Revision: 2
# Processed by: cddbd v1.5.2PL0 Copyright (c) Steve Scherf et al.
# Submitted via: audiograbber 1.83.01
#
DISCID=ab0cb50e
DTITLE=мийос вакбатфгс (BY ALANTALON) - пкамо енодоу
DYEAR=2006
DGENRE=Folk
TTITLE0=мийос вакбатфгс - BAD NEWS NICK
TTITLE1=сыйяатгс лакалас - г ежгбеиа поу дем ха аподеволастам
TTITLE2=мийос вакбатфгс - йамеис ейеи леса;
TTITLE3=мийос вакбатфгс - г идиотупг ацапг тоу й.д.
TTITLE4=сыйяатгс лакалас - йаи г ваяа дем тгм ажгмеи
TTITLE5=хеодосиа тсатсоу - йахаяоаило
TTITLE6=сыйяатгс лакалас - яесеьиом
TTITLE7=мийос вакбатфгс - 214
TTITLE8=сыйяатгс лакалас - йой 29
TTITLE9=мийос вакбатфгс - лацисса
TTITLE10=тамиа тсамайкидоу - потали
TTITLE11=циыяцос ливагк - ломокуйос
TTITLE12=сыйяатгс лакалас - вояос
TTITLE13=мийос вакбатфгс - йуйкожояоум амалеса лас
EXTD=
EXTT0=
EXTT1=
EXTT2=
EXTT3=
EXTT4=
EXTT5=
EXTT6=
EXTT7=
EXTT8=
EXTT9=
EXTT10=
EXTT11=
EXTT12=
EXTT13=
PLAYORDER=
